inDegrees=no
num_controls=7
num_derivatives=13
num_iterations=100
num_multipliers=7
num_parameters=0
num_slacks=7
num_states=26
objective=5.431693
objective_accelerations=0.529371
objective_balance=0.109814
objective_effort=0.385544
objective_height=4.365927
objective_ligament=0.041038
solver_duration=1153.337102
status=Solve_Succeeded
success=true
DataType=double
version=3
OpenSimVersion=4.4-2022-07-23-0e9fedc
endheader
time	/jointset/ground_pelvis/pelvis_tilt/value	/jointset/ground_pelvis/pelvis_tx/value	/jointset/ground_pelvis/pelvis_ty/value	/jointset/hip_l/hip_flexion_l/value	/jointset/hip_l/hip_adduction_l/value	/jointset/hip_l/hip_rotation_l/value	/jointset/back/lumbar_extension/value	/jointset/patellofemoral_l/patellar_flexion_l/value	/jointset/knee_l/knee_flexion_l/value	/jointset/knee_l/knee_adduction_l/value	/jointset/knee_l/knee_rotation_l/value	/jointset/ankle_l/ankle_angle_l/value	/jointset/subtalar_l/subtalar_angle_l/value	/jointset/ground_pelvis/pelvis_tilt/speed	/jointset/ground_pelvis/pelvis_tx/speed	/jointset/ground_pelvis/pelvis_ty/speed	/jointset/hip_l/hip_flexion_l/speed	/jointset/hip_l/hip_adduction_l/speed	/jointset/hip_l/hip_rotation_l/speed	/jointset/back/lumbar_extension/speed	/jointset/patellofemoral_l/patellar_flexion_l/speed	/jointset/knee_l/knee_flexion_l/speed	/jointset/knee_l/knee_adduction_l/speed	/jointset/knee_l/knee_rotation_l/speed	/jointset/ankle_l/ankle_angle_l/speed	/jointset/subtalar_l/subtalar_angle_l/speed	/forceset/tau_hip_flexion_l	/forceset/tau_hip_adduction_l	/forceset/tau_hip_rotation_l	/forceset/tau_knee_flexion_l	/forceset/tau_ankle_angle_l	/forceset/tau_subtalar_angle_l	/forceset/tau_lumbar_extension	lambda_cid13_p0	lambda_cid13_p1	lambda_cid13_p2	lambda_cid13_p3	lambda_cid13_p4	lambda_cid13_p5	lambda_cid14_p0	/jointset/ground_pelvis/pelvis_tilt/accel	/jointset/ground_pelvis/pelvis_tx/accel	/jointset/ground_pelvis/pelvis_ty/accel	/jointset/hip_l/hip_flexion_l/accel	/jointset/hip_l/hip_adduction_l/accel	/jointset/hip_l/hip_rotation_l/accel	/jointset/back/lumbar_extension/accel	/jointset/patellofemoral_l/patellar_flexion_l/accel	/jointset/knee_l/knee_flexion_l/accel	/jointset/knee_l/knee_adduction_l/accel	/jointset/knee_l/knee_rotation_l/accel	/jointset/ankle_l/ankle_angle_l/accel	/jointset/subtalar_l/subtalar_angle_l/accel	gamma_cid13_p0	gamma_cid13_p1	gamma_cid13_p2	gamma_cid13_p3	gamma_cid13_p4	gamma_cid13_p5	gamma_cid14_p0
1.5	-0.4001277544341463	-0.03790023027951909	0.7827808642537512	1.152968893404513	-0.3079967962579861	-0.04836629613096262	-0.334672414260488	0.6727234623138272	0.6727234623137925	-0.1735447304466111	0.174485598147146	0.08861818935586668	-0.03663510309909678	0.6076007938677638	0.1915023699246428	0.4170772590977994	-2.041633551822315	0.02896187584366587	-0.6005802620190163	0.5771266508859181	-1.704460274180806	-1.704460274181061	0.004936389519739741	-0.0003539940329163565	-0.3695134917074808	-0.0239305113818378	-0.2262935985863557	0.0296935040435988	-0.02043450556681868	-0.1939764974214081	0.08507279224718878	0.04310117069883976	0.2099198309971556	-11.30289656343857	-20.09344455431665	6.631713602898962	0.3078502245339591	-611.0833032177369	-57.70897854447177	-29.23586104273638	0.4929174322011637	0.4895497668381068	-0.2791288773833142	-1.294703204943505	0.5468721421428135	-0.3355748323861279	1.53127215234025	-1.056742106140887	-1.05674210614084	0.013145824014981	-0.02292848056821115	-0.220684675381618	0.5268222505182056	1.973229884388694e-07	1.016592479650363e-06	-9.704227339109516e-07	6.981124039570823e-09	2.721844742413106e-07	3.395212748217066e-07	2.476833421742009e-07
1.51	-0.3940274292603769	-0.03596092903856198	0.7869368741027594	1.132489905543821	-0.3076806593968067	-0.05438888111321173	-0.3288259845144397	0.6556282917384448	0.655628291738374	-0.1734961913889375	0.1744824400341032	0.08491229133042988	-0.03684901975212356	0.6123825907003118	0.1963310552622176	0.4140416246416744	-2.053871974662277	0.03427416377993783	-0.6038392022404995	0.5920678410211696	-1.714329685185773	-1.714329685185868	0.00475258555479053	-0.00028762990085309	-0.3716070986122332	-0.01884396689997662	-0.2190964771147509	0.02861389889282753	-0.02033872185260736	-0.1928522184733816	0.0868314405254642	0.04242599327452216	0.2042230535176882	-10.5555892939339	-20.02429497677965	6.727182309525453	0.1796740153183501	-607.2977619633974	-58.05271173760464	-30.19371642986195	0.4585772282223138	0.4755272884002125	-0.3282029690764451	-1.144587911857297	0.5246245525511281	-0.3062267284036712	1.461823849027125	-0.9154552874969667	-0.9154552874728037	-0.03678078705585594	0.02004600379427713	-0.1948272869058787	0.5007478947975859	1.230499778032393e-07	1.192583726671277e-06	-6.223177534637469e-07	7.768664043585698e-08	2.267537720841385e-07	3.685497269869831e-07	2.097644214130505e-07
1.52	-0.3878817328344113	-0.03397414106999197	0.7910600431593346	1.111897298237013	-0.3073111561696316	-0.06044109011996677	-0.3228328865860698	0.6384417441150717	0.6384417441149455	-0.1734500178270168	0.1744796709910502	0.08118723151816463	-0.03701183549077643	0.6166750443104985	0.200999715447224	0.4105091006113269	-2.06435744103564	0.03963514904350992	-0.6065050669169598	0.6064602873527944	-1.722735683783652	-1.722735683783587	0.004463290377605977	-0.0002761800207614252	-0.3733458490723455	-0.01371032850701114	-0.2118993556434371	0.02753429374197543	-0.02024293813883976	-0.1917279395253466	0.08859008880372739	0.0417508158501176	0.1985262760379567	-9.814930546271166	-19.9564387250267	6.825664589993432	0.05719311763144105	-603.624761595268	-58.45044742601299	-31.13200499955481	0.3950487877288835	0.4575447363243191	-0.3785067922278657	-0.9441119116236156	0.5566116076028261	-0.2169597233816294	1.42152339161491	-0.7640596247232521	-0.7640596247232756	-0.007952418432096021	-0.03391133096245553	-0.1497133864537026	0.5362410327390024	8.083278488192011e-08	1.31649106141095e-06	-4.356359833098702e-07	1.197698368514398e-07	2.047492922259543e-07	3.953732916487238e-07	1.914239325185699e-07
1.53	-0.3816955750202665	-0.03194147849647166	0.7951454634678071	1.091208569367074	-0.3068878399757211	-0.06651732762897826	-0.3166986858776203	0.621178523484085	0.6211785234840804	-0.1734071008409346	0.1744769994968557	0.07744663004315186	-0.03712309895944084	0.6204695949887933	0.2055041401213287	0.4064976228003532	-2.073091614275986	0.04503508086473418	-0.608657180379131	0.6202834408407586	-1.729656897942627	-1.729656897942523	0.004116007653365108	-0.0002592425851497907	-0.374707572553522	-0.008533465924944195	-0.2045947289939612	0.02628491197267982	-0.02021098281494133	-0.1908383415409012	0.09076204854111176	0.04090127914869655	0.1927479129360836	-8.952306029491744	-19.83412741642658	6.9153664676233	-0.1636737915053651	-600.0683784534183	-58.77685644833243	-32.04663499313214	0.3586317385025802	0.4426200005119793	-0.424027181946302	-0.7935471939327231	0.5326260160505765	-0.2013449398858701	1.348249303282358	-0.6184596818234278	-0.6184596818174177	-0.04852023360434491	0.01945522819842921	-0.1193511522722279	0.5095681491551673	7.26748982820559e-08	1.385059239351807e-06	-4.204663740926523e-07	1.314418182875256e-07	2.076351735604445e-07	4.198541633379575e-07	1.938855274824259e-07
1.54	-0.375474076993234	-0.02986462594269813	0.7991884572168847	1.070441403331925	-0.3064103360542713	-0.07261248782905236	-0.3104291460391312	0.6038536292374711	0.6038536292375654	-0.1733677374889962	0.1744744891664058	0.07369442146866226	-0.03718236194664184	0.6237430868919979	0.2098377114978683	0.4020237887325041	-2.080044874064067	0.05047269455270435	-0.6102896051313422	0.6335281133645235	-1.735070406915172	-1.735070406915029	0.003752563561768737	-0.0002439472545187307	-0.3756672689676074	-0.00331023221428324	-0.1972901023448846	0.0250355302033792	-0.02017902749170093	-0.189948743556396	0.09293400827853059	0.04005174244727893	0.1869695498338058	-8.096954930063978	-19.7128538799733	7.007874204480983	-0.3745014234034691	-596.632035235327	-59.15848566584171	-32.93356319256546	0.2908370327107893	0.423374076811224	-0.4709780436029839	-0.5879292211707173	0.5641479809520096	-0.1130219813897568	1.305827198775112	-0.4625185874373412	-0.4625185874373541	-0.0111846919031974	-0.0342397519584838	-0.06930797303558031	0.5455152584577517	6.368774047100913e-08	1.442621489883562e-06	-4.055494741104808e-07	1.419174109099473e-07	2.089208863167998e-07	4.410288919979466e-07	1.950934520296847e-07
1.55	-0.3692224459556158	-0.02774533220671588	0.8031844588585461	1.049613600413684	-0.3058783295785653	-0.07872147034842519	-0.3040301104051895	0.5864821831856117	0.5864821831856269	-0.1733320970321295	0.174472202569717	0.06993464615313937	-0.03718921187916473	0.6264947467132755	0.2139879135597253	0.3971049696615146	-2.085215515900767	0.05592866951224212	-0.611415867967924	0.646177466888927	-1.738963170298587	-1.738963170298609	0.003367887214291954	-0.0002174501995384319	-0.3762192253808797	0.001942609486502709	-0.1900247468863374	0.0236298075129845	-0.02018336900126035	-0.1890534007388477	0.09511971621902299	0.03913127891729692	0.1812049971234571	-7.246897298590151	-19.55989594062078	7.095382724107193	-0.5681944105883255	-593.321836257181	-59.50411072160639	-33.78867477359504	0.2540838384153169	0.4059061635803056	-0.5130277190127175	-0.4365904151208341	0.5362072869828167	-0.09856857993486555	1.229257449433572	-0.3143491849107895	-0.3143491849352203	-0.05302951613938353	0.02060937183708788	-0.03783550343148084	0.5153302130544748	5.374511800359989e-08	1.4875029979657e-06	-3.909237391165149e-07	1.510145555514081e-07	2.083629265809562e-07	4.583943689068498e-07	1.94856930227386e-07
